<svg width="720" height="1280" viewBox="0 0 720 1280" fill="none" xmlns="http://www.w3.org/2000/svg">
<path d="M0 978.641H720V978.003H0V978.641Z" fill="#ECECEC"/>
<path d="M600.164 1019.97H647.86V1019.33H600.164V1019.97Z" fill="#ECECEC"/>
<path d="M464.438 1026.95H476.955V1026.31H464.438V1026.95Z" fill="#ECECEC"/>
<path d="M571.086 996.141H598.722V995.501H571.086V996.141Z" fill="#ECECEC"/>
<path d="M75.5391 1000.44H137.737V999.798H75.5391V1000.44Z" fill="#ECECEC"/>
<path d="M150.562 1000.44H159.682V999.798H150.562V1000.44Z" fill="#ECECEC"/>
<path d="M189.32 1011.28H324.214V1010.64H189.32V1011.28Z" fill="#ECECEC"/>
<mask id="mask0_117_97" style="mask-type:luminance" maskUnits="userSpaceOnUse" x="0" y="-4" width="720" height="1284">
<path d="M0 -4H720V1280H0V-4Z" fill="white"/>
</mask>
<g mask="url(#mask0_117_97)">
<path d="M63.2351 137.775C58.9007 137.775 55.3756 144.062 55.3756 151.792V848.826C55.3756 856.556 58.9007 862.842 63.2351 862.842H341.298C345.629 862.842 349.156 856.556 349.156 848.826V151.792C349.156 144.062 345.629 137.775 341.298 137.775H63.2351ZM341.298 863.484H63.2351C58.7035 863.484 55.0156 856.91 55.0156 848.826V151.792C55.0156 143.71 58.7035 137.133 63.2351 137.133H341.298C345.828 137.133 349.516 143.71 349.516 151.792V848.826C349.516 856.91 345.828 863.484 341.298 863.484Z" fill="#ECECEC"/>
<path d="M374.702 137.775C370.369 137.775 366.844 144.062 366.844 151.792V848.826C366.844 856.556 370.369 862.842 374.702 862.842H652.765C657.098 862.842 660.625 856.556 660.625 848.826V151.792C660.625 144.062 657.098 137.775 652.765 137.775H374.702ZM652.765 863.484H374.702C370.172 863.484 366.484 856.91 366.484 848.826V151.792C366.484 143.71 370.172 137.133 374.702 137.133H652.765C657.297 137.133 660.985 143.71 660.985 151.792V848.826C660.985 856.91 657.297 863.484 652.765 863.484Z" fill="#ECECEC"/>
<path d="M348.966 442.524H144.508V977.102H348.966V442.524Z" fill="#F0F0F0"/>
<path d="M341.738 558.078H151.734V459.349H341.738V558.078Z" fill="#E1E1E1"/>
<path d="M162.527 558.078H151.734V475.329H162.527V558.078Z" fill="#ECECEC"/>
<path d="M214.724 558.078H203.93V475.329H214.724V558.078Z" fill="#ECECEC"/>
<path d="M281.853 554.809L271.216 558.078L263.336 476.534L273.972 473.265L281.853 554.809Z" fill="#ECECEC"/>
<path d="M175.902 558.078H165.109V486.236H175.902V558.078Z" fill="#ECECEC"/>
<path d="M200.715 558.078H189.922V486.236H200.715V558.078Z" fill="#ECECEC"/>
<path d="M263.333 558.078H252.539V486.236H263.333V558.078Z" fill="#ECECEC"/>
<path d="M237.634 553.903L227.097 558.078L218.359 487.946L228.896 483.77L237.634 553.903Z" fill="#ECECEC"/>
<path d="M185.233 558.078H179.836V471.223H185.233V558.078Z" fill="#ECECEC"/>
<path d="M249.436 558.078H244.039V471.223H249.436V558.078Z" fill="#ECECEC"/>
<path d="M151.734 672.43H341.738V573.698H151.734V672.43Z" fill="#E1E1E1"/>
<path d="M330.945 672.43H341.74V589.681H330.945V672.43Z" fill="#ECECEC"/>
<path d="M278.758 672.43H289.552V589.681H278.758V672.43Z" fill="#ECECEC"/>
<path d="M211.625 669.192L222.262 672.461L230.142 590.917L219.506 587.648L211.625 669.192Z" fill="#ECECEC"/>
<path d="M317.57 672.43H328.365V600.585H317.57V672.43Z" fill="#ECECEC"/>
<path d="M292.766 672.43H303.56V600.585H292.766V672.43Z" fill="#ECECEC"/>
<path d="M230.141 672.43H240.935V600.585H230.141V672.43Z" fill="#ECECEC"/>
<path d="M255.844 668.285L266.38 672.461L275.118 602.326L264.582 598.151L255.844 668.285Z" fill="#ECECEC"/>
<path d="M308.242 672.43H313.639V585.572H308.242V672.43Z" fill="#ECECEC"/>
<path d="M244.039 672.43H249.436V585.572H244.039V672.43Z" fill="#ECECEC"/>
<path d="M162.527 672.43H151.734V589.681H162.527V672.43Z" fill="#ECECEC"/>
<path d="M175.902 672.43H165.109V600.585H175.902V672.43Z" fill="#ECECEC"/>
<path d="M200.715 672.43H189.922V600.585H200.715V672.43Z" fill="#ECECEC"/>
<path d="M185.233 672.43H179.836V585.572H185.233V672.43Z" fill="#ECECEC"/>
<path d="M341.738 786.812H151.734V688.083H341.738V786.812Z" fill="#E1E1E1"/>
<path d="M271.583 786.812H260.789V704.064H271.583V786.812Z" fill="#ECECEC"/>
<path d="M338.712 783.543L328.075 786.812L320.195 705.268L330.831 701.999L338.712 783.543Z" fill="#ECECEC"/>
<path d="M232.771 786.812H221.977V714.968H232.771V786.812Z" fill="#ECECEC"/>
<path d="M257.575 786.812H246.781V714.968H257.575V786.812Z" fill="#ECECEC"/>
<path d="M320.199 786.812H309.406V714.968H320.199V786.812Z" fill="#ECECEC"/>
<path d="M294.501 782.637L283.964 786.812L275.227 716.678L285.763 712.505L294.501 782.637Z" fill="#ECECEC"/>
<path d="M242.1 786.812H236.703V699.958H242.1V786.812Z" fill="#ECECEC"/>
<path d="M306.303 786.812H300.906V699.958H306.303V786.812Z" fill="#ECECEC"/>
<path d="M214.54 783.543L203.903 786.812L196.023 705.268L206.659 701.999L214.54 783.543Z" fill="#ECECEC"/>
<path d="M196.021 786.812H185.227V714.968H196.021V786.812Z" fill="#ECECEC"/>
<path d="M170.321 782.637L159.785 786.812L151.047 716.678L161.583 712.505L170.321 782.637Z" fill="#ECECEC"/>
<path d="M182.124 786.812H176.727V699.958H182.124V786.812Z" fill="#ECECEC"/>
<path d="M109.234 978.5H144.507V442.522H109.234V978.5Z" fill="#E1E1E1"/>
<path d="M468.626 964.492H438.656L454.411 735.665C455.078 725.979 460.022 718.123 465.453 718.123H475.754H596.22L577.049 964.492H468.626Z" fill="#F5F5F5"/>
<path d="M563.672 964.492H593.641L609.396 735.665C610.063 725.979 606.201 718.123 600.769 718.123H590.47C585.037 718.123 580.094 725.979 579.427 735.665L563.672 964.492Z" fill="#F0F0F0"/>
<path d="M552.633 964.24L558.063 853.559C558.305 848.618 560.446 844.643 563.207 844.016L565.44 843.505C569.142 842.666 572.015 837.334 572.342 830.704L573.331 810.525C573.737 802.25 570.081 795.137 565.426 795.137H615.51C620.166 795.137 623.822 802.25 623.416 810.525L622.425 830.704C622.101 837.334 619.227 842.666 615.525 843.505L613.293 844.016C610.532 844.643 608.389 848.618 608.148 853.559L602.717 964.24C602.321 972.309 598.533 978.5 593.991 978.5H543.906C548.448 978.5 552.237 972.309 552.633 964.24Z" fill="#E7E7E7"/>
<path d="M414.804 825.868C413.952 808.486 405.791 795.153 396.008 795.153H420.242H439.611C449.394 795.153 457.553 808.486 458.407 825.868L462.711 913.602H419.108L414.804 825.868Z" fill="#E7E7E7"/>
<path d="M376.64 795.14H396.009C405.792 795.14 413.953 808.473 414.805 825.855L419.109 913.589H522.957L527.262 825.855C528.113 808.473 536.275 795.14 546.058 795.14H565.426C570.082 795.14 573.738 802.253 573.332 810.525L572.343 830.706C572.017 837.337 569.145 842.668 565.441 843.508L563.209 844.016C560.448 844.643 558.307 848.618 558.064 853.562L552.633 964.242C552.237 972.309 548.45 978.5 543.907 978.5H398.159C393.617 978.5 389.829 972.309 389.433 964.242L384.002 853.562C383.76 848.618 381.619 844.643 378.859 844.016L376.625 843.508C372.921 842.668 370.049 837.337 369.725 830.704L368.734 810.525C368.328 802.256 371.984 795.14 376.64 795.14Z" fill="#F0F0F0"/>
<path d="M147.106 415.807C147.106 415.807 145.511 397.053 153.182 385.027C160.851 373.004 160.177 365.849 157.985 364.917C155.794 363.983 153.771 376.008 150.4 379.316C150.4 379.316 150.293 362.18 153.719 355.868C157.143 349.553 158.94 333.29 155.681 333.005C152.423 332.72 152.086 342.666 151.412 349.717C150.737 356.769 147.106 366.689 147.106 366.689C147.106 366.689 146.398 351.356 144.185 345.044C141.971 338.731 147.871 324.299 145.596 317.987C143.321 311.675 139.274 323.698 139.611 337.227C139.948 350.755 145.005 365.187 143.826 379.316C143.826 379.316 141.594 369.396 139.591 368.495C137.588 367.591 135.565 361.029 134.217 358.597C132.868 356.168 131.181 364.583 134.217 372.4C137.251 380.217 145.005 401.129 143.826 418.031L147.106 415.807Z" fill="#E7E7E7"/>
<path d="M151.692 407.295L154.205 435.405C154.98 444.085 151.218 451.945 146.289 451.945H143.609C138.68 451.945 134.921 444.085 135.695 435.405L138.207 407.295H151.692Z" fill="#E7E7E7"/>
<path d="M302.477 446.414H310.299V386.449H302.477V446.414Z" fill="#ECECEC"/>
<path d="M264.656 446.414H272.478V386.449H264.656V446.414Z" fill="#ECECEC"/>
<path d="M216.008 444.046L223.716 446.414L229.427 387.322L221.719 384.952L216.008 444.046Z" fill="#ECECEC"/>
<path d="M292.789 446.414H300.611V394.35H292.789V446.414Z" fill="#ECECEC"/>
<path d="M274.805 446.414H282.627V394.35H274.805V446.414Z" fill="#ECECEC"/>
<path d="M229.43 446.414H237.252V394.35H229.43V446.414Z" fill="#ECECEC"/>
<path d="M248.047 443.389L255.683 446.414L262.015 395.588L254.379 392.563L248.047 443.389Z" fill="#ECECEC"/>
<path d="M286.023 446.414H289.934V383.472H286.023V446.414Z" fill="#ECECEC"/>
<path d="M239.5 446.414H243.411V383.472H239.5V446.414Z" fill="#ECECEC"/>
<path d="M211.597 398.817H173.484V445.742H211.597V398.817Z" fill="#ECECEC"/>
<path d="M342.328 418.045H310.398V453.078H342.328V418.045Z" fill="#ECECEC"/>
<path d="M334.864 387.256H318.898V422.289H334.864V387.256Z" fill="#ECECEC"/>
<path d="M601.645 623.094H563.672V340.909H601.645V623.094Z" fill="#E1E1E1"/>
<path d="M455.562 623.836H597.571V340.907H455.562V623.836Z" fill="#E1E1E1"/>
<path d="M450.984 623.836H598.325V340.907H450.984V623.836Z" fill="#F0F0F0"/>
<path d="M457.281 610.812H592.273V349.909H457.281V610.812Z" fill="white"/>
<path d="M457.281 610.812H459.785V349.909H457.281V610.812Z" fill="#E1E1E1"/>
<path d="M459.359 544.578H592.618V537.542H459.359V544.578Z" fill="#E1E1E1"/>
<path d="M457.281 537.531H594.389V525.718H457.281V537.531Z" fill="#F0F0F0"/>
</g>
<mask id="mask1_117_97" style="mask-type:luminance" maskUnits="userSpaceOnUse" x="0" y="-4" width="720" height="1284">
<path d="M0 -4H720V1280H0V-4Z" fill="white"/>
</mask>
<g mask="url(#mask1_117_97)">
<path d="M242.984 405.74C277.065 296.802 398.083 312.171 444.784 388.781C491.485 465.389 506.668 514.486 548.796 485.87C590.925 457.253 644.64 464.907 647.722 555.805C650.805 646.702 601.444 754.193 523.104 785.99C444.764 817.787 444.784 930.313 341.1 907.607C284.571 895.229 283.283 803.413 291.266 727.476C299.248 651.535 203.461 532.078 242.984 405.74Z" fill="#007CFF"/>
<mask id="mask2_117_97" style="mask-type:luminance" maskUnits="userSpaceOnUse" x="233" y="327" width="415" height="584">
<path d="M233.383 327.703H647.859V910.633H233.383V327.703Z" fill="white"/>
</mask>
<g mask="url(#mask2_117_97)">
<g opacity="0.899994">
<path d="M242.984 405.764C277.065 296.825 398.083 312.194 444.784 388.804C491.485 465.412 506.668 514.51 548.796 485.894C590.925 457.276 644.64 464.93 647.722 555.828C650.805 646.726 601.444 754.217 523.104 786.014C444.764 817.811 444.784 930.337 341.1 907.631C284.571 895.252 283.283 803.437 291.266 727.499C299.248 651.558 203.461 532.101 242.984 405.764Z" fill="white"/>
</g>
</g>
</g>
<mask id="mask3_117_97" style="mask-type:luminance" maskUnits="userSpaceOnUse" x="0" y="-4" width="720" height="1284">
<path d="M0 -4H720V1280H0V-4Z" fill="white"/>
</mask>
<g mask="url(#mask3_117_97)">
<path d="M639.197 1064.91C639.197 1080.97 514.195 1093.99 359.997 1093.99C205.799 1093.99 80.7969 1080.97 80.7969 1064.91C80.7969 1048.85 205.799 1035.84 359.997 1035.84C514.195 1035.84 639.197 1048.85 639.197 1064.91Z" fill="#F5F5F5"/>
</g>
<mask id="mask4_117_97" style="mask-type:luminance" maskUnits="userSpaceOnUse" x="0" y="-4" width="720" height="1284">
<path d="M0 -4H720V1280H0V-4Z" fill="white"/>
</mask>
<g mask="url(#mask4_117_97)">
<path d="M196.474 883.35C196.474 883.35 186.941 869.175 178.767 883.35C170.592 897.526 169.016 985.328 169.016 985.328" stroke="#007CFF" stroke-width="1.26" stroke-miterlimit="10"/>
<path d="M168.342 1002.3C168.342 1002.3 173.961 899.253 152.805 855.949" stroke="#007CFF" stroke-width="1.26" stroke-miterlimit="10"/>
<path d="M170.359 991.438C170.359 991.438 166.032 874.131 181.899 848.107" stroke="#007CFF" stroke-width="1.26" stroke-miterlimit="10"/>
<path d="M168.346 991.438C168.346 991.438 167.978 913.922 156.186 901.871C144.393 889.822 138.383 929.122 138.383 929.122" stroke="#007CFF" stroke-width="1.26" stroke-miterlimit="10"/>
<path d="M172.997 991.438C172.997 991.438 171.074 931.929 180.21 910.661C189.345 889.393 198.963 919.772 198.963 919.772" stroke="#007CFF" stroke-width="1.26" stroke-miterlimit="10"/>
<path d="M169.815 999.414C169.815 999.414 175.723 860.244 165.945 836.662" stroke="#007CFF" stroke-width="1.26" stroke-miterlimit="10"/>
<path d="M146.084 913.169C146.084 913.169 151.964 917.034 150.215 926.16C148.467 935.284 129.875 950.305 129.875 950.305C129.875 950.305 122.089 937.578 129.24 916.877C136.391 896.179 145.926 906.636 146.084 913.169Z" fill="#007CFF"/>
<mask id="mask5_117_97" style="mask-type:luminance" maskUnits="userSpaceOnUse" x="126" y="904" width="25" height="47">
<path d="M126.219 904.664H150.541V950.305H126.219V904.664Z" fill="white"/>
</mask>
<g mask="url(#mask5_117_97)">
<g opacity="0.199997">
<path d="M146.084 913.169C146.084 913.169 151.964 917.034 150.215 926.16C148.467 935.284 129.875 950.305 129.875 950.305C129.875 950.305 122.089 937.578 129.24 916.877C136.391 896.179 145.926 906.636 146.084 913.169Z" fill="black"/>
</g>
</g>
<path d="M171.647 895.793C171.647 895.793 165.386 895.326 165.03 904.948C164.674 914.57 178.593 941.195 178.593 941.195C178.593 941.195 188.527 934.791 186.394 910.777C184.26 886.764 173.204 889.874 171.647 895.793Z" fill="#007CFF"/>
<mask id="mask6_117_97" style="mask-type:luminance" maskUnits="userSpaceOnUse" x="165" y="891" width="22" height="51">
<path d="M165.023 891.626H186.693V941.227H165.023V891.626Z" fill="white"/>
</mask>
<g mask="url(#mask6_117_97)">
<g opacity="0.199997">
<path d="M171.647 895.824C171.647 895.824 165.386 895.357 165.03 904.979C164.674 914.602 178.593 941.227 178.593 941.227C178.593 941.227 188.527 934.822 186.394 910.809C184.26 886.795 173.204 889.905 171.647 895.824Z" fill="black"/>
</g>
</g>
<path d="M176.944 849.714C176.944 849.714 172.77 848.913 173.105 844.381C173.442 839.846 189.332 828.177 198.708 847.049C198.708 847.049 192.705 865.438 184.026 865.677C175.349 865.918 176.944 849.714 176.944 849.714Z" fill="#007CFF"/>
<mask id="mask7_117_97" style="mask-type:luminance" maskUnits="userSpaceOnUse" x="173" y="836" width="26" height="30">
<path d="M173.086 836.609H198.708V865.648H173.086V836.609Z" fill="white"/>
</mask>
<g mask="url(#mask7_117_97)">
<g opacity="0.199997">
<path d="M176.944 849.683C176.944 849.683 172.77 848.882 173.105 844.349C173.442 839.814 189.332 828.145 198.708 847.017C198.708 847.017 192.705 865.407 184.026 865.646C175.349 865.887 176.944 849.683 176.944 849.683Z" fill="black"/>
</g>
</g>
<path d="M169.168 838.73C169.168 838.73 172.948 841.992 174.006 837.824C175.066 833.658 165.041 808.767 151.487 815.939C151.487 815.939 151.129 837.21 158.422 845.6C165.716 853.987 169.168 838.73 169.168 838.73Z" fill="#007CFF"/>
<mask id="mask8_117_97" style="mask-type:luminance" maskUnits="userSpaceOnUse" x="151" y="814" width="24" height="35">
<path d="M151.484 814.612H174.082V848.078H151.484V814.612Z" fill="white"/>
</mask>
<g mask="url(#mask8_117_97)">
<g opacity="0.199997">
<path d="M169.168 838.691C169.168 838.691 172.948 841.953 174.006 837.785C175.066 833.619 165.041 808.728 151.487 815.9C151.487 815.9 151.129 837.171 158.422 845.561C165.716 853.948 169.168 838.691 169.168 838.691Z" fill="black"/>
</g>
</g>
<path d="M188.93 909.497C188.93 909.497 186.05 905.349 189.158 903.323C192.267 901.3 207.522 901.872 207.68 928.821C207.68 928.821 189.914 934.088 187.715 923.823C185.516 913.557 188.93 909.497 188.93 909.497Z" fill="#007CFF"/>
<mask id="mask9_117_97" style="mask-type:luminance" maskUnits="userSpaceOnUse" x="186" y="902" width="22" height="29">
<path d="M186.977 902.61H207.681V930.172H186.977V902.61Z" fill="white"/>
</mask>
<g mask="url(#mask9_117_97)">
<g opacity="0.199997">
<path d="M188.93 909.497C188.93 909.497 186.05 905.349 189.158 903.323C192.267 901.3 207.522 901.872 207.68 928.821C207.68 928.821 189.914 934.088 187.715 923.823C185.516 913.557 188.93 909.497 188.93 909.497Z" fill="black"/>
</g>
</g>
<path d="M152.696 849.059C152.696 849.059 155.576 844.91 152.467 842.886C149.359 840.862 134.104 841.435 133.945 868.384C133.945 868.384 151.712 873.651 153.911 863.384C156.11 853.119 152.696 849.059 152.696 849.059Z" fill="#007CFF"/>
<mask id="mask10_117_97" style="mask-type:luminance" maskUnits="userSpaceOnUse" x="133" y="842" width="22" height="28">
<path d="M133.945 842.172H154.65V869.734H133.945V842.172Z" fill="white"/>
</mask>
<g mask="url(#mask10_117_97)">
<g opacity="0.199997">
<path d="M152.696 849.059C152.696 849.059 155.576 844.91 152.467 842.886C149.359 840.862 134.104 841.435 133.945 868.384C133.945 868.384 151.712 873.651 153.911 863.384C156.11 853.119 152.696 849.059 152.696 849.059Z" fill="black"/>
</g>
</g>
<path d="M162.092 870.769C162.092 870.769 162.345 865.726 160.061 867.703C157.779 869.678 149.826 884.981 158.071 899.5C158.071 899.5 169.168 884.842 167.166 877.21C165.166 869.578 162.092 870.769 162.092 870.769Z" fill="#007CFF"/>
<mask id="mask11_117_97" style="mask-type:luminance" maskUnits="userSpaceOnUse" x="154" y="867" width="14" height="33">
<path d="M154.414 867.246H167.409V899.5H154.414V867.246Z" fill="white"/>
</mask>
<g mask="url(#mask11_117_97)">
<g opacity="0.199997">
<path d="M162.092 870.769C162.092 870.769 162.345 865.726 160.061 867.703C157.779 869.678 149.826 884.981 158.071 899.5C158.071 899.5 169.168 884.842 167.166 877.21C165.166 869.578 162.092 870.769 162.092 870.769Z" fill="black"/>
</g>
</g>
<path d="M191.508 877.955C191.508 877.955 189.786 873.931 192.308 873.433C194.83 872.935 206.132 878.315 203.5 898.438C203.5 898.438 189.731 896.591 189.14 888.232C188.55 879.871 191.508 877.955 191.508 877.955Z" fill="#007CFF"/>
<mask id="mask12_117_97" style="mask-type:luminance" maskUnits="userSpaceOnUse" x="189" y="873" width="15" height="26">
<path d="M189.062 873.371H203.894V898.406H189.062V873.371Z" fill="white"/>
</mask>
<g mask="url(#mask12_117_97)">
<g opacity="0.199997">
<path d="M191.508 877.924C191.508 877.924 189.786 873.9 192.308 873.402C194.83 872.903 206.132 878.283 203.5 898.406C203.5 898.406 189.731 896.56 189.14 888.201C188.55 879.84 191.508 877.924 191.508 877.924Z" fill="black"/>
</g>
</g>
<path d="M147.112 1066.12H191.63L197.547 988.926H141.195L147.112 1066.12Z" fill="#1A2E35"/>
<mask id="mask13_117_97" style="mask-type:luminance" maskUnits="userSpaceOnUse" x="141" y="988" width="57" height="79">
<path d="M141.195 988.894H197.547V1066.09H141.195V988.894Z" fill="white"/>
</mask>
<g mask="url(#mask13_117_97)">
<g opacity="0.199997">
<path d="M147.112 1066.09H191.63L197.547 988.895H141.195L147.112 1066.09Z" fill="white"/>
</g>
</g>
<path d="M203.123 982.684V990.018C203.123 994.928 200.893 998.906 198.141 998.906H140.039C137.285 998.906 135.055 994.928 135.055 990.018V982.684H203.123Z" fill="#1A2E35"/>
</g>
<mask id="mask14_117_97" style="mask-type:luminance" maskUnits="userSpaceOnUse" x="0" y="-4" width="720" height="1284">
<path d="M0 -4H720V1280H0V-4Z" fill="white"/>
</mask>
<g mask="url(#mask14_117_97)">
<path d="M601.982 251.035H539.229C528.556 251.035 519.906 261.205 519.906 273.752V337.957C519.906 350.502 528.556 360.674 539.227 360.674H557.549L553.12 380.945L570.546 360.674H601.982C612.655 360.674 621.305 350.502 621.305 337.957V273.752C621.305 261.205 612.655 251.035 601.982 251.035Z" fill="#007CFF"/>
<mask id="mask15_117_97" style="mask-type:luminance" maskUnits="userSpaceOnUse" x="519" y="251" width="103" height="130">
<path d="M519.906 251.067H621.305V380.977H519.906V251.067Z" fill="white"/>
</mask>
<g mask="url(#mask15_117_97)">
<g opacity="0.699997">
<path d="M601.982 251.067H539.229C528.556 251.067 519.906 261.236 519.906 273.783V337.988C519.906 350.533 528.556 360.705 539.227 360.705H557.549L553.12 380.977L570.546 360.705H601.982C612.655 360.705 621.305 350.533 621.305 337.988V273.783C621.305 261.236 612.655 251.067 601.982 251.067Z" fill="white"/>
</g>
</g>
<path d="M601.753 305.55C601.753 325.773 587.808 342.164 570.608 342.164C553.406 342.164 539.461 325.773 539.461 305.55C539.461 285.327 553.406 268.935 570.608 268.935C587.808 268.935 601.753 285.327 601.753 305.55Z" fill="#007CFF"/>
<path d="M567.34 321.93C566.499 321.93 565.702 321.496 565.158 320.743L552.939 303.815C551.914 302.4 552.063 300.276 553.269 299.074C554.472 297.873 556.279 298.042 557.303 299.462L567.34 313.365L583.915 290.407C584.94 288.987 586.749 288.815 587.95 290.017C589.156 291.222 589.304 293.345 588.28 294.76L569.523 320.743C568.979 321.496 568.181 321.93 567.34 321.93Z" fill="white"/>
</g>
<mask id="mask16_117_97" style="mask-type:luminance" maskUnits="userSpaceOnUse" x="0" y="-4" width="720" height="1284">
<path d="M0 -4H720V1280H0V-4Z" fill="white"/>
</mask>
<g mask="url(#mask16_117_97)">
<path d="M301.799 640.958C301.799 640.958 347.723 635.329 417.277 653.898C417.277 653.898 428.474 532.848 427.14 516.22C425.803 499.595 319.752 504.461 319.752 504.461C319.752 504.461 317.014 552.909 310.19 582.141C303.365 611.372 298.302 635.34 301.799 640.958Z" fill="#007CFF"/>
<mask id="mask17_117_97" style="mask-type:luminance" maskUnits="userSpaceOnUse" x="300" y="503" width="128" height="151">
<path d="M427.258 503.768H300.67V653.867H427.258V503.768Z" fill="white"/>
</mask>
<g mask="url(#mask17_117_97)">
<g opacity="0.199997">
<path d="M301.806 640.927C301.806 640.927 347.73 635.298 417.285 653.867C417.285 653.867 428.482 532.817 427.147 516.189C425.81 499.564 319.759 504.43 319.759 504.43C319.759 504.43 317.022 552.878 310.198 582.11C303.373 611.341 298.31 635.308 301.806 640.927Z" fill="black"/>
</g>
</g>
<path d="M450.828 1041.72L432.105 1046.88L427.649 1018.51L425.249 1003.33L443.972 998.168L447.163 1018.51L450.828 1041.72Z" fill="#FE8A7B"/>
<path d="M343.18 1043.22L323.877 1045.71L323.692 1018.52L323.56 1001.62L342.89 999.153L343.021 1018.52L343.18 1043.22Z" fill="#FE8A7B"/>
<mask id="mask18_117_97" style="mask-type:luminance" maskUnits="userSpaceOnUse" x="323" y="999" width="21" height="20">
<path d="M343.008 999.169H323.546V1018.53H343.008V999.169Z" fill="white"/>
</mask>
<g mask="url(#mask18_117_97)">
<g opacity="0.199997">
<path d="M342.876 999.169L343.008 1018.53H323.678L323.546 1001.63L342.876 999.169Z" fill="black"/>
</g>
</g>
<mask id="mask19_117_97" style="mask-type:luminance" maskUnits="userSpaceOnUse" x="425" y="998" width="23" height="21">
<path d="M447.148 998.193H425.235V1018.53H447.148V998.193Z" fill="white"/>
</mask>
<g mask="url(#mask19_117_97)">
<g opacity="0.199997">
<path d="M447.148 1018.53H427.634L425.235 1003.35L443.958 998.193L447.148 1018.53Z" fill="black"/>
</g>
</g>
<path d="M533.945 526.081L552.531 520.732L549.137 541.402C549.137 541.402 532.258 545.2 530.615 536.648L533.945 526.081Z" fill="#FE8A7B"/>
<path d="M569.879 523.356C570.124 526.818 559.714 522.878 558.085 525.572C570.772 531.857 564.165 540.342 561.845 542.38C557.446 546.242 549.015 541.442 549.015 541.442L552.409 520.773C552.409 520.773 569.358 516.028 569.879 523.356Z" fill="#FE8A7B"/>
<path d="M508.288 531.322L538.812 524.668L541.586 539.106L513.873 545.688L508.288 531.322Z" fill="#FE8A7B"/>
<path d="M415.895 518.312C415.895 518.312 416.555 519.082 417.689 520.392C421.539 524.783 430.953 535.389 440.604 544.531C448.515 551.978 456.532 558.475 461.753 559.785C476.705 563.534 531.055 547.947 531.055 547.947L525.438 526.478C525.438 526.478 474.807 533.026 470.878 533.026C467.898 533.026 437.097 489.576 429.634 486.006L415.895 518.312Z" fill="#007CFF"/>
<mask id="mask20_117_97" style="mask-type:luminance" maskUnits="userSpaceOnUse" x="417" y="504" width="24" height="41">
<path d="M440.602 504.629H417.686V544.484H440.602V504.629Z" fill="white"/>
</mask>
<g mask="url(#mask20_117_97)">
<g opacity="0.199997">
<path d="M417.688 520.345C421.538 524.734 430.953 535.342 440.602 544.484C438.653 529.436 432.983 515.62 425.52 506.889C424.729 505.964 423.938 505.194 423.147 504.629L417.688 520.345Z" fill="black"/>
</g>
</g>
<path d="M450.606 1038.9L429.344 1038.34C428.547 1038.32 427.841 1038.84 427.64 1039.59L423.173 1056.26C422.709 1057.99 424.012 1059.67 425.85 1059.7C433.524 1059.77 444.623 1059.62 454.264 1059.88C465.537 1060.17 472.702 1059.63 485.924 1059.98C493.917 1060.19 496.425 1052.42 493.105 1051.62C477.992 1047.99 468.114 1048.71 455.242 1040.49C453.845 1039.6 452.289 1038.95 450.606 1038.9Z" fill="#1A2E35"/>
<path d="M462.941 1038.7C463.002 1038.73 463.057 1038.75 463.107 1038.78C463.287 1038.88 463.371 1039.03 463.381 1039.27C463.405 1039.87 463.205 1040.34 462.77 1040.69C461.533 1041.69 458.324 1041.78 454.049 1040.98C457.19 1039.63 461.491 1038.17 462.941 1038.7ZM452.427 1041.55C452.448 1041.56 452.467 1041.57 452.488 1041.57C455.602 1042.26 461.156 1043.15 463.358 1041.37C464.02 1040.84 464.339 1040.11 464.302 1039.22C464.278 1038.69 464.033 1038.27 463.585 1038.01C461.259 1036.65 453.297 1040.31 452.398 1040.73C452.222 1040.82 452.116 1041 452.135 1041.19C452.153 1041.35 452.269 1041.5 452.427 1041.55Z" fill="#007CFF"/>
<path d="M458.347 1034.19C458.724 1034.32 458.75 1034.53 458.761 1034.61C458.927 1035.89 455.647 1039.02 453.194 1040.35C453.5 1038.87 454.307 1035.85 455.982 1034.6C456.564 1034.16 457.187 1033.99 457.88 1034.08C458.078 1034.11 458.231 1034.14 458.347 1034.19ZM452.419 1041.56C452.527 1041.6 452.651 1041.6 452.762 1041.55C455.148 1040.59 459.953 1036.63 459.676 1034.49C459.61 1033.99 459.267 1033.36 458.007 1033.19C457.068 1033.08 456.198 1033.31 455.42 1033.89C452.87 1035.8 452.158 1040.87 452.129 1041.09C452.108 1041.24 452.176 1041.4 452.306 1041.5C452.34 1041.52 452.379 1041.54 452.419 1041.56Z" fill="#007CFF"/>
<path d="M342.419 1038.9L321.157 1038.34C320.36 1038.32 319.651 1038.84 319.451 1039.59L314.984 1056.26C314.522 1057.99 315.822 1059.67 317.66 1059.7C325.337 1059.77 336.436 1059.62 346.077 1059.88C357.348 1060.17 364.515 1059.63 377.734 1059.98C385.727 1060.19 388.238 1052.42 384.918 1051.62C369.805 1047.99 359.927 1048.71 347.055 1040.49C345.655 1039.6 344.099 1038.95 342.419 1038.9Z" fill="#1A2E35"/>
<path d="M354.754 1038.7C354.814 1038.73 354.87 1038.75 354.92 1038.78C355.099 1038.88 355.183 1039.03 355.194 1039.27C355.218 1039.87 355.017 1040.34 354.585 1040.69C353.348 1041.69 350.136 1041.78 345.864 1040.98C349.002 1039.63 353.303 1038.17 354.754 1038.7ZM344.242 1041.55C344.261 1041.56 344.279 1041.57 344.3 1041.57C347.415 1042.26 352.968 1043.15 355.17 1041.37C355.835 1040.84 356.151 1040.11 356.114 1039.22C356.091 1038.69 355.845 1038.27 355.397 1038.01C353.071 1036.65 345.11 1040.31 344.211 1040.73C344.034 1040.82 343.929 1041 343.947 1041.19C343.965 1041.35 344.082 1041.5 344.242 1041.55Z" fill="#007CFF"/>
<path d="M350.159 1034.19C350.539 1034.32 350.563 1034.53 350.573 1034.61C350.739 1035.89 347.459 1039.02 345.006 1040.35C345.312 1038.87 346.119 1035.85 347.794 1034.6C348.377 1034.16 348.999 1033.99 349.692 1034.08C349.89 1034.11 350.043 1034.14 350.159 1034.19ZM344.234 1041.56C344.342 1041.6 344.463 1041.6 344.574 1041.55C346.961 1040.59 351.768 1036.63 351.488 1034.49C351.422 1033.99 351.08 1033.36 349.819 1033.19C348.88 1033.08 348.01 1033.31 347.232 1033.89C344.682 1035.8 343.97 1040.87 343.941 1041.09C343.92 1041.24 343.989 1041.4 344.115 1041.5C344.152 1041.52 344.192 1041.54 344.234 1041.56Z" fill="#007CFF"/>
<path d="M303.354 629.951C293.128 673.132 310.677 1012.75 310.677 1012.75H344.595L359.096 729.718L412.509 1012.75L448.758 1010.18C425.061 790.934 404.113 660.035 404.113 660.035L404.163 643.492L303.354 629.951Z" fill="#1A2E35"/>
<mask id="mask21_117_97" style="mask-type:luminance" maskUnits="userSpaceOnUse" x="300" y="629" width="149" height="384">
<path d="M448.789 629.995H300.182V1012.78H448.789V629.995Z" fill="white"/>
</mask>
<g mask="url(#mask21_117_97)">
<g opacity="0.399994">
<path d="M448.789 1010.21L412.53 1012.78L370.495 789.979L359.13 729.762L344.626 1012.78H310.714C310.714 1012.78 293.151 673.163 303.383 629.993L404.197 643.529L404.144 660.064C404.144 660.064 425.082 790.955 448.789 1010.21Z" fill="white"/>
</g>
</g>
<path d="M321.624 470.016C322.85 491.166 321.919 512.264 320.01 531.907C318.602 546.278 316.64 559.862 314.557 572.124C309.681 600.863 304.143 622.398 303.355 629.917C318.127 631.908 373.803 639.391 404.163 643.461C440.923 543.363 427.076 485.103 427.076 485.103C427.076 485.103 416.565 480.729 403.955 477.399C402.296 476.952 400.598 476.544 398.868 476.156C387.674 473.629 368.975 471.526 356.008 470.396C353.282 470.159 350.51 469.99 347.807 469.867C334.037 469.256 321.624 470.016 321.624 470.016Z" fill="#1A2E35"/>
<path d="M375.585 424.995C374.849 438.744 373.346 464.522 361.617 471.057C361.617 471.057 368.919 484.603 384.717 485.98C396.668 487.023 395.872 475.546 395.872 475.546C388.96 470.515 390.619 462.018 395.88 452.437L375.585 424.995Z" fill="#FE8A7B"/>
<mask id="mask22_117_97" style="mask-type:luminance" maskUnits="userSpaceOnUse" x="381" y="436" width="15" height="24">
<path d="M395.883 436.206H381.64V459.375H395.883V436.206Z" fill="white"/>
</mask>
<g mask="url(#mask22_117_97)">
<g opacity="0.199997">
<path d="M383.868 436.207L395.883 452.439C394.628 454.704 393.504 457.036 392.716 459.375C387.16 457.215 380.825 449.216 381.727 443.22C382.176 440.228 383.027 437.449 383.868 436.207Z" fill="black"/>
</g>
</g>
<path d="M427.004 397.315C429.309 404.441 428.046 419.084 417.822 414.325C407.598 409.564 423.046 385.065 427.004 397.315Z" fill="#1A2E35"/>
<path d="M374.263 406.953C373.14 425.271 371.521 435.946 379.814 446.313C392.29 461.906 416.453 456.089 423.194 438.416C429.259 422.51 430.079 395.225 412.648 385.991C395.476 376.892 375.389 388.636 374.263 406.953Z" fill="#FE8A7B"/>
<path d="M387.453 397.009V376.545C387.453 376.545 365.086 374.927 366.08 386.075C353.691 392.058 359.545 410.828 376.188 420.031C385.307 412.923 384.265 395.805 384.265 395.805C385.249 396.228 386.33 396.626 387.453 397.009Z" fill="#1A2E35"/>
<path d="M365.167 421.26C366.074 426.119 369.215 430.097 372.693 432.326C377.927 435.682 382.508 431.558 382.695 425.767C382.864 420.554 380.343 412.529 374.299 411.497C368.344 410.482 364.128 415.706 365.167 421.26Z" fill="#FE8A7B"/>
<path d="M402.039 415.145C401.854 416.627 402.511 417.916 403.51 418.024C404.507 418.132 405.464 417.017 405.649 415.538C405.833 414.056 405.177 412.767 404.18 412.659C403.183 412.552 402.223 413.664 402.039 415.145Z" fill="#1A2E35"/>
<path d="M419.289 417.02C419.104 418.502 419.761 419.791 420.757 419.899C421.757 420.007 422.714 418.895 422.899 417.413C423.083 415.931 422.424 414.642 421.43 414.534C420.433 414.427 419.473 415.539 419.289 417.02Z" fill="#1A2E35"/>
<path d="M413.708 417.182C413.708 417.182 416.234 425.795 419.586 430.209C416.635 432.233 412.189 430.612 412.189 430.612L413.708 417.182Z" fill="#FE5652"/>
<path d="M403.315 435.38C403.929 435.531 404.586 435.647 405.284 435.724C405.53 435.75 405.757 435.578 405.786 435.336C405.817 435.095 405.633 434.879 405.393 434.853C398.695 434.116 396.142 429.242 396.116 429.194C396.007 428.978 395.733 428.893 395.512 429.001C395.287 429.109 395.195 429.371 395.306 429.589C395.406 429.784 397.608 433.988 403.315 435.38Z" fill="#1A2E35"/>
<path d="M397.409 409.161C397.715 409.235 398.053 409.153 398.288 408.914C401.085 406.082 404.355 406.629 404.387 406.634C404.877 406.721 405.349 406.405 405.444 405.93C405.539 405.455 405.215 404.998 404.73 404.913C404.556 404.88 400.458 404.197 396.987 407.71C396.642 408.059 396.653 408.614 397.011 408.948C397.127 409.053 397.264 409.125 397.409 409.161Z" fill="#1A2E35"/>
<path d="M427.433 412.09C427.599 412.132 427.778 412.126 427.952 412.067C428.424 411.906 428.675 411.405 428.514 410.95C426.887 406.377 422.865 405.416 422.689 405.352C422.206 405.239 421.716 405.527 421.594 405.997C421.473 406.467 421.763 406.936 422.243 407.052C422.412 407.085 425.502 407.864 426.805 411.533C426.908 411.821 427.15 412.024 427.433 412.09Z" fill="#1A2E35"/>
<path d="M377.53 404.594C377.53 404.594 390.641 399.912 396.736 392.463C396.736 392.463 408.702 395.508 411.155 400.251C411.155 400.251 415.308 396.864 412.196 392.463C412.196 392.463 421.152 394.301 422.929 400.251C422.929 400.251 427.402 398.759 427.135 392.463C427.135 392.463 431.125 393.926 432.386 400.251C432.386 400.251 442.29 380.187 409.62 374.43C409.62 374.43 412.196 373.372 417.273 373.159C417.273 373.159 394.484 364.204 376.399 372.406C358.317 380.611 361.621 396.356 377.53 404.594Z" fill="#1A2E35"/>
<path d="M295.569 647.227L327.187 651.336C327.187 651.336 340.241 562.509 345.992 533.824V472.552L329.455 468.315L316.721 472.552C313.66 482.49 310.97 495.535 308.623 510.045C307.067 519.649 305.672 529.921 304.43 540.321C302.716 554.497 301.292 568.929 300.079 582.436C298.18 604.239 296.914 623.55 296.229 635.312C295.783 642.81 295.569 647.227 295.569 647.227Z" fill="#007CFF"/>
<path d="M345.992 533.781C345.992 533.781 343.366 490.567 329.455 468.272C329.455 468.272 329.804 461.89 332.586 460.876C335.368 459.859 345.992 465.955 345.992 465.955C345.992 465.955 352.617 461.554 354.075 463.585C355.538 465.616 359.051 479.36 345.992 533.781Z" fill="#007CFF"/>
<mask id="mask23_117_97" style="mask-type:luminance" maskUnits="userSpaceOnUse" x="329" y="460" width="27" height="74">
<path d="M355.625 460.729H329.455V533.75H355.625V460.729Z" fill="white"/>
</mask>
<g mask="url(#mask23_117_97)">
<g opacity="0.699997">
<path d="M345.992 533.75C345.992 533.75 343.366 490.536 329.455 468.24C329.455 468.24 329.804 461.859 332.586 460.844C335.368 459.828 345.992 465.924 345.992 465.924C345.992 465.924 352.617 461.522 354.075 463.554C355.538 465.585 359.051 479.329 345.992 533.75Z" fill="white"/>
</g>
</g>
<path d="M417.948 659.122L414.335 661.664C414.335 661.664 419.557 633.023 417.447 560.606C417.342 557.113 417.21 553.749 417.078 550.539C414.388 489.264 404.631 478.121 403.998 477.454L413.122 480.484L429.657 486.031C434.535 538.315 417.948 659.122 417.948 659.122Z" fill="#007CFF"/>
<path d="M416.518 539.969C416.518 539.969 425.647 497.972 422.934 483.493C420.22 469.015 410.482 475.448 410.482 475.448C410.482 475.448 401.537 468.419 398.881 476.167C398.881 476.167 411.159 484.592 416.518 539.969Z" fill="#007CFF"/>
<mask id="mask24_117_97" style="mask-type:luminance" maskUnits="userSpaceOnUse" x="398" y="472" width="26" height="68">
<path d="M423.445 472.557H398.887V540H423.445V472.557Z" fill="white"/>
</mask>
<g mask="url(#mask24_117_97)">
<g opacity="0.699997">
<path d="M416.525 540C416.525 540 425.655 498.003 422.941 483.525C420.228 469.046 410.489 475.479 410.489 475.479C410.489 475.479 401.544 468.45 398.889 476.198C398.889 476.198 411.167 484.624 416.525 540Z" fill="white"/>
</g>
</g>
<mask id="mask25_117_97" style="mask-type:luminance" maskUnits="userSpaceOnUse" x="304" y="510" width="16" height="31">
<path d="M319.742 510.051H304.447V540.328H319.742V510.051Z" fill="white"/>
</mask>
<g mask="url(#mask25_117_97)">
<g opacity="0.199997">
<path d="M304.447 540.328C317.949 532.958 319.742 513.724 319.742 513.724C318.925 513.415 313.914 511.746 308.64 510.049C307.084 519.656 305.687 529.928 304.447 540.328Z" fill="black"/>
</g>
</g>
<mask id="mask26_117_97" style="mask-type:luminance" maskUnits="userSpaceOnUse" x="359" y="697" width="14" height="93">
<path d="M372.008 697.865H359.097V789.953H372.008V697.865Z" fill="white"/>
</mask>
<g mask="url(#mask26_117_97)">
<g opacity="0.199997">
<path d="M370.462 789.953L359.096 729.736L361.285 697.867C361.285 697.867 376.87 753.128 370.462 789.953Z" fill="black"/>
</g>
</g>
<mask id="mask27_117_97" style="mask-type:luminance" maskUnits="userSpaceOnUse" x="296" y="582" width="18" height="54">
<path d="M313.68 582.383H296.223V635.258H313.68V582.383Z" fill="white"/>
</mask>
<g mask="url(#mask27_117_97)">
<g opacity="0.199997">
<path d="M296.22 635.258C304.711 634.69 312.068 634.151 312.068 634.151L313.68 600.536C313.68 600.536 310.937 598.302 304.79 598.944C304.79 598.944 302.021 592.372 300.07 582.383C298.171 604.182 296.906 623.496 296.22 635.258Z" fill="black"/>
</g>
</g>
<path d="M293.333 582.363L309.867 608.22L296.793 615.539L281.255 592.242L293.333 582.363Z" fill="#FE8A7B"/>
<path d="M317.377 472.212C306.244 473.403 258.951 536.622 256.865 555.68C254.779 574.737 284.647 607.633 284.647 607.633L304.606 596.198C304.606 596.198 284.338 565.869 283.294 557.775C282.249 549.678 320.336 516.497 320.336 516.497C320.336 516.497 324.495 506.749 325.022 492.715C325.552 478.686 317.377 472.212 317.377 472.212Z" fill="#007CFF"/>
<path d="M313.705 600.566C313.705 600.566 296.683 604.123 289.845 614.534C289.845 614.534 296.949 636.236 302.033 638.601C307.115 640.961 319.744 640.961 319.744 640.961C319.744 640.961 320.556 616.822 313.705 600.566Z" fill="#007CFF"/>
</g>
</svg>
