<svg width="234" height="213" viewBox="0 0 234 213" fill="none" xmlns="http://www.w3.org/2000/svg">
<path d="M122.995 114.977H6.12811C3.85765 114.977 2 113.118 2 110.846V6.13078C2 3.85885 3.85765 2 6.12811 2H122.995C125.265 2 127.123 3.85885 127.123 6.13078V110.846C127.123 113.118 125.265 114.977 122.995 114.977Z" stroke="#1F64FF" stroke-width="3" stroke-miterlimit="10"/>
<path d="M33.25 94.8602C35.3019 94.8602 36.9653 93.1957 36.9653 91.1425C36.9653 89.0893 35.3019 87.4248 33.25 87.4248C31.1981 87.4248 29.5347 89.0893 29.5347 91.1425C29.5347 93.1957 31.1981 94.8602 33.25 94.8602Z" fill="white"/>
<path d="M89.186 94.8602C91.2379 94.8602 92.9013 93.1957 92.9013 91.1425C92.9013 89.0893 91.2379 87.4248 89.186 87.4248C87.1341 87.4248 85.4707 89.0893 85.4707 91.1425C85.4707 93.1957 87.1341 94.8602 89.186 94.8602Z" fill="white"/>
<path d="M61.3208 94.8602C63.3727 94.8602 65.0361 93.1957 65.0361 91.1425C65.0361 89.0893 63.3727 87.4248 61.3208 87.4248C59.2689 87.4248 57.6055 89.0893 57.6055 91.1425C57.6055 93.1957 59.2689 94.8602 61.3208 94.8602Z" fill="white"/>
<path d="M112.179 25.0498H16.9025C16.7374 25.0498 16.5723 24.8846 16.5723 24.6367C16.5723 24.3889 16.6961 24.2236 16.9025 24.2236H112.221C112.386 24.2236 112.551 24.3889 112.551 24.6367C112.551 24.8846 112.386 25.0498 112.179 25.0498Z" fill="white"/>
<path d="M112.179 39.0947H16.9025C16.7374 39.0947 16.5723 38.9295 16.5723 38.6816C16.5723 38.4338 16.6961 38.2686 16.9025 38.2686H112.221C112.386 38.2686 112.551 38.4338 112.551 38.6816C112.551 38.9295 112.386 39.0947 112.179 39.0947Z" fill="white"/>
<path d="M112.179 53.1387H16.9025C16.7374 53.1387 16.5723 52.9734 16.5723 52.7256C16.5723 52.4777 16.6961 52.3125 16.9025 52.3125H112.221C112.386 52.3125 112.551 52.4777 112.551 52.7256C112.551 52.9734 112.386 53.1387 112.179 53.1387Z" fill="white"/>
<path d="M112.179 67.1836H16.9025C16.7374 67.1836 16.5723 67.0183 16.5723 66.7705C16.5723 66.5227 16.6961 66.3574 16.9025 66.3574H112.221C112.386 66.3574 112.551 66.5227 112.551 66.7705C112.551 67.0183 112.386 67.1836 112.179 67.1836Z" fill="white"/>
<path d="M39.2358 81.2279H27.2643C26.1084 81.2279 25.2002 80.3192 25.2002 79.1625V53.9648C25.2002 52.8082 26.1084 51.8994 27.2643 51.8994H39.2358C40.3917 51.8994 41.2998 52.8082 41.2998 53.9648V79.1625C41.2998 80.2778 40.3917 81.2279 39.2358 81.2279Z" fill="#1F64FF"/>
<path d="M67.3066 81.2286H55.3351C54.1792 81.2286 53.271 80.3198 53.271 79.1632V39.9209C53.271 38.7642 54.1792 37.8555 55.3351 37.8555H67.3066C68.4625 37.8555 69.3706 38.7642 69.3706 39.9209V79.1632C69.3706 80.2785 68.4625 81.2286 67.3066 81.2286Z" fill="#1F64FF"/>
<path d="M95.1713 81.2283H83.1998C82.0439 81.2283 81.1357 80.3196 81.1357 79.1629V26.289C81.1357 25.1324 82.0439 24.2236 83.1998 24.2236H95.1713C96.3272 24.2236 97.2354 25.1324 97.2354 26.289V79.1629C97.2354 80.2783 96.3272 81.2283 95.1713 81.2283Z" fill="#1F64FF"/>
<path d="M112.179 81.6416H16.9025C16.7374 81.6416 16.5723 81.4764 16.5723 81.2285C16.5723 80.9807 16.6961 80.8154 16.9025 80.8154H112.221C112.386 80.8154 112.551 80.9807 112.551 81.2285C112.551 81.4764 112.386 81.6416 112.179 81.6416Z" fill="#C4DBF7"/>
<path d="M165.432 210.026C161.717 206.887 159.447 201.93 160.066 197.097C160.685 192.264 164.318 187.844 169.065 186.811C173.812 185.779 179.22 188.629 180.665 193.255C181.449 184.292 182.358 174.956 187.146 167.355C191.439 160.457 198.911 155.5 207.002 154.633C215.093 153.765 223.597 157.07 228.634 163.472C233.67 169.875 234.908 179.128 231.4 186.481C228.799 191.892 224.01 195.899 218.974 199.162C202.75 209.655 183.266 213.909 164.153 211.142L165.432 210.026Z" fill="#C4DBF7"/>
<path d="M220.625 157.276C213.938 162.728 207.828 168.801 202.338 175.451C193.751 185.819 186.816 197.427 181.738 209.86C181.367 210.769 182.853 211.182 183.224 210.273C191.522 190.033 204.732 172.188 221.698 158.391C222.483 157.73 221.41 156.656 220.625 157.276Z" fill="#F5F6FA"/>
<path d="M117.794 97.4619C117.505 97.4206 117.216 97.338 116.927 97.2141C116.886 97.1728 116.844 97.1728 116.762 97.1315L57.1519 63.92C56.4914 63.5483 56.1611 62.7634 56.3263 62.1025C56.4501 61.6894 56.6978 61.4003 56.9455 61.359C57.2757 61.2763 57.606 61.2763 57.8949 61.4416L118.248 92.2985C119.61 93.0007 120.395 94.6117 120.064 95.9335C119.899 96.6358 119.445 97.1315 118.785 97.338C118.454 97.4619 118.124 97.5032 117.794 97.4619Z" fill="#000022"/>
<path d="M104.873 93.0424C106.854 94.199 109.413 93.5381 110.569 91.5553C110.693 91.3488 110.817 91.1422 110.9 90.8944L125.637 91.1836L121.55 84.6982L108.175 85.4005C105.946 84.7395 103.634 86.0201 102.974 88.2094C102.396 90.1096 103.18 92.0923 104.873 93.0424Z" fill="#FFB8B8"/>
<path d="M111.271 90.6879L111.188 86.144C111.188 85.1939 111.89 84.3678 112.881 84.2439L139.383 81.6828L161.469 74.4539C164.235 73.5451 167.248 75.0735 168.156 77.8411C169.065 80.6088 167.537 83.6242 164.771 84.533C164.73 84.533 164.689 84.5743 164.606 84.5743L140.168 91.8445L113.17 92.5467C112.344 92.5467 111.601 92.0097 111.354 91.2249C111.312 91.0183 111.271 90.8531 111.271 90.6879Z" fill="#1F64FF"/>
<path d="M150.488 207.3H145.452L143.017 187.803H150.488V207.3Z" fill="#FFB8B8"/>
<path d="M151.768 212.215H135.462V212.009C135.462 208.498 138.31 205.647 141.819 205.647H151.768V212.215Z" fill="#000022"/>
<path d="M165.349 207.3H160.313L157.877 187.803H165.349V207.3Z" fill="#FFB8B8"/>
<path d="M166.629 212.215H150.323V212.009C150.323 208.498 153.172 205.647 156.681 205.647H166.629V212.215Z" fill="#000022"/>
<path d="M168.735 128.36L167.537 200.112C167.537 201.021 166.753 201.764 165.845 201.723C165.804 201.723 165.762 201.723 165.721 201.723L159.818 201.186C159.033 201.103 158.373 200.484 158.332 199.657L154.864 154.921C154.864 154.673 154.658 154.508 154.41 154.549C154.204 154.549 154.038 154.756 154.038 154.962L152.305 200.731C152.263 201.599 151.562 202.301 150.653 202.301H144.296C143.429 202.301 142.686 201.64 142.645 200.731L138.187 127.947L164.606 121.338L168.735 128.36Z" fill="#000022"/>
<path d="M149.58 61.0285C155.189 61.0285 159.735 56.4789 159.735 50.8668C159.735 45.2546 155.189 40.7051 149.58 40.7051C143.971 40.7051 139.425 45.2546 139.425 50.8668C139.425 56.4789 143.971 61.0285 149.58 61.0285Z" fill="#FFB8B8"/>
<path d="M137.278 130.508C136.907 130.178 136.7 129.682 136.7 129.186L136.04 80.2781C135.957 75.156 139.177 70.6121 144.007 68.9598C144.956 64.6638 149.993 64.1268 152.965 64.1681C154.451 64.2094 155.855 64.9529 156.68 66.1922L158.786 69.3729L163.45 72.0992C167.867 74.7016 170.138 79.8237 169.023 84.822L168.321 88.0853C165.803 99.6515 166.051 111.631 169.023 123.073L170.468 128.567C170.716 129.558 170.138 130.591 169.147 130.839C168.941 130.88 168.734 130.921 168.528 130.88L166.835 130.756C165.927 130.674 165.225 129.971 165.143 129.104L164.854 126.336C164.854 126.212 164.73 126.13 164.647 126.171C164.565 126.171 164.482 126.254 164.482 126.336L164.193 129.021C164.111 129.971 163.326 130.674 162.377 130.715L138.682 131.087C138.682 131.087 138.682 131.087 138.64 131.087C138.104 131.045 137.65 130.839 137.278 130.508Z" fill="#1F64FF"/>
<path d="M150.365 56.692C150.406 58.1377 151.397 58.9639 152.635 59.7074C153.873 60.451 155.277 60.7814 156.681 61.1119C157.3 61.4424 158.043 61.1945 158.373 60.6162C158.456 60.451 158.497 60.2444 158.538 60.0379L159.818 55.1636C160.272 53.5939 160.602 52.0242 160.809 50.4132C161.098 47.3151 160.396 43.9692 158.208 41.7386C156.02 39.5079 152.305 38.6818 149.704 40.4167C146.608 36.4925 132.572 45.1671 136.04 47.8934C136.659 48.3891 137.609 47.7695 138.393 47.6869C139.177 47.6043 140.044 47.7695 140.54 48.3891C141.2 49.174 140.911 50.3719 141.159 51.3633C141.613 52.809 143.182 53.6352 144.627 53.1808C144.627 53.1808 144.627 53.1808 144.668 53.1808C145.328 52.8503 145.906 52.4786 146.484 52.0242C147.103 51.6111 147.846 51.322 148.507 51.5698C149.415 51.9003 149.704 53.0156 149.787 53.9243C149.911 54.8331 150.117 55.7832 150.365 56.692Z" fill="#000022"/>
<path d="M225.496 212.381H68.2151C67.9674 212.381 67.8022 212.216 67.8022 211.968C67.8022 211.72 67.9674 211.555 68.2151 211.555H225.496C225.744 211.555 225.909 211.72 225.909 211.968C225.909 212.216 225.703 212.381 225.496 212.381Z" fill="#000022"/>
<path opacity="0.2" d="M148.011 83.9131L146.36 104.154L137.691 125.221L150.488 104.567L148.011 83.9131Z" fill="black"/>
<path d="M135.669 133.069C137.444 131.624 137.733 129.021 136.288 127.245C136.123 127.038 135.958 126.873 135.792 126.708L141.324 113.035L133.811 114.564L129.724 127.328C128.321 129.145 128.692 131.789 130.508 133.193C132.036 134.309 134.182 134.267 135.669 133.069Z" fill="#FFB8B8"/>
<path d="M135.256 126.997L131.004 125.469C130.095 125.138 129.6 124.147 129.848 123.238L136.866 97.5446L137.939 74.3296C138.063 71.3968 140.54 69.1662 143.47 69.2901C146.401 69.414 148.631 71.8925 148.507 74.8253C148.507 74.8666 148.507 74.9079 148.507 74.9905L146.608 100.436L137.65 125.923C137.361 126.708 136.618 127.204 135.751 127.162C135.586 127.121 135.421 127.08 135.256 126.997Z" fill="#1F64FF"/>
</svg>
